<?xml version="1.0" encoding="utf-8"?>
<svg width="512" height="512" viewBox="0 0 512 512" version="1.1" id="svg1" xmlns="http://www.w3.org/2000/svg" xmlns:bx="https://boxy-svg.com"><defs id="defs1"><linearGradient id="swatch4"><stop style="stop-color:#000000;stop-opacity:1;" offset="0" id="stop4"/></linearGradient><linearGradient id="linearGradient5" gradientUnits="userSpaceOnUse" x1="-0.5" y1="256" x2="512.5" y2="256" gradientTransform="matrix(0.7669173,0,0,0.7669173,59.669171,59.669171)" href="#swatch4"/><bx:export><bx:file format="svg"/></bx:export></defs><g id="layer1"/><g id="layer3"><path style="display:none;fill:none;stroke:url(#linearGradient5);stroke-width:15.3383;stroke-dasharray:none;stroke-opacity:1;paint-order:markers fill stroke" d="M 256,59.669171 C 452.33083,59.669171 452.33083,256 452.33083,256 c 0,0 0,196.33083 -196.33083,196.33083 C 59.669171,452.33083 59.669171,256 59.669171,256 c 0,0 0,-196.330829 196.330829,-196.330829 z" id="path3"/></g><g id="layer5" transform="matrix(1, 0, 0, 1, 0.908421, 0.908421)"><path style="fill: none; stroke: rgb(0, 0, 0); stroke-width: 20px; stroke-dasharray: none; stroke-opacity: 1; paint-order: markers;" d="M 384.778 384.778 L 504 504" id="path6"/></g><g id="layer8"><circle style="fill:none;fill-opacity:1;stroke:#000000;stroke-width:20;stroke-dasharray:none;stroke-opacity:1;paint-order:markers fill stroke" id="path9" cx="256" cy="256" r="188"/></g><g id="layer4"><path style="fill:none;stroke:#000000;stroke-width:20;stroke-dasharray:none;stroke-opacity:1;paint-order:markers fill stroke" d="M 256,0 V 512" id="path5"/></g><g id="group-1" transform="matrix(1, 0, 0, 1, -377.722778, -377.722778)"><path style="fill: none; stroke: rgb(0, 0, 0); stroke-width: 20px; stroke-dasharray: none; stroke-opacity: 1; paint-order: markers;" d="M 384.778 384.778 L 504 504" id="path-1"/></g><g id="group-2" transform="matrix(-1, 0, 0, 1, 510.999634, 0.969692)" style=""><path style="fill: none; stroke: rgb(0, 0, 0); stroke-width: 20px; stroke-dasharray: none; stroke-opacity: 1; paint-order: markers;" d="M 384.778 384.778 L 504 504" id="path-2"/></g><g id="group-3" transform="matrix(-1, 0, 0, 1, 889.726807, -377.70163)" style=""><path style="fill: none; stroke: rgb(0, 0, 0); stroke-width: 20px; stroke-dasharray: none; stroke-opacity: 1; paint-order: markers;" d="M 384.778 384.778 L 504 504" id="path-3"/></g></svg>